<?xml version="1.0" encoding="UTF-8" standalone="no"?><!DOCTYPE svg PUBLIC "-//W3C//DTD SVG 1.1//EN" "http://www.w3.org/Graphics/SVG/1.1/DTD/svg11.dtd"><!-- Generated by graphviz version 2.40.1 (20161225.0304)
 --><!-- Title: Database Structure Pages: 1 --><svg xmlns="http://www.w3.org/2000/svg" xmlns:xlink="http://www.w3.org/1999/xlink" width="948pt" height="691pt" viewBox="0.00 0.00 948.00 690.80">
<g id="graph0" class="graph" transform="scale(1 1) rotate(0) translate(4 686.8)">
<title>Database Structure</title>
<polygon fill="#ffffff" stroke="transparent" points="-4,4 -4,-686.8 944,-686.8 944,4 -4,4"/>
<text text-anchor="middle" x="470" y="-666.2" font-family="Helvetica,sans-Serif" font-size="14.00" fill="#000000">ER Diagram: srm</text>
<!-- advisor -->
<g id="node1" class="node">
<title>advisor</title>
<polygon fill="#dddddd" stroke="transparent" points="431,-518 431,-540 541,-540 541,-518 431,-518"/>
<polygon fill="none" stroke="#000000" points="431,-518 431,-540 541,-540 541,-518 431,-518"/>
<text text-anchor="start" x="465.3948" y="-524.4" font-family="Times,serif" font-size="14.00" fill="#000000">advisor</text>
<polygon fill="none" stroke="#000000" points="431,-496 431,-518 541,-518 541,-496 431,-496"/>
<text text-anchor="start" x="448.0047" y="-503.4" font-family="Times,serif" font-size="14.00" fill="#000000">idAdvisor:</text>
<text text-anchor="start" x="507.8883" y="-503.4" font-family="Helvetica,sans-Serif" font-style="oblique" font-size="10.00" fill="#000000">INT</text>
<polygon fill="none" stroke="#000000" points="431,-474 431,-496 541,-496 541,-474 431,-474"/>
<text text-anchor="start" x="444.0627" y="-481.4" font-family="Times,serif" font-size="14.00" fill="#000000">email:</text>
<text text-anchor="start" x="479.0543" y="-481.4" font-family="Helvetica,sans-Serif" font-style="oblique" font-size="10.00" fill="#000000">VARCHAR</text>
<polygon fill="none" stroke="#000000" points="431,-452 431,-474 541,-474 541,-452 431,-452"/>
<text text-anchor="start" x="434.7324" y="-459.4" font-family="Times,serif" font-size="14.00" fill="#000000">fullname:</text>
<text text-anchor="start" x="488.3846" y="-459.4" font-family="Helvetica,sans-Serif" font-style="oblique" font-size="10.00" fill="#000000">VARCHAR</text>
<polygon fill="none" stroke="#000000" points="431,-430 431,-452 541,-452 541,-430 431,-430"/>
<text text-anchor="start" x="453.45" y="-437.4" font-family="Times,serif" font-size="14.00" fill="#000000">idQuota:</text>
<text text-anchor="start" x="502.443" y="-437.4" font-family="Helvetica,sans-Serif" font-style="oblique" font-size="10.00" fill="#000000">INT</text>
<polygon fill="none" stroke="#000000" points="431,-408 431,-430 541,-430 541,-408 431,-408"/>
<text text-anchor="start" x="433.6225" y="-415.4" font-family="Times,serif" font-size="14.00" fill="#000000">idGuestadvisor:</text>
<text text-anchor="start" x="522.2705" y="-415.4" font-family="Helvetica,sans-Serif" font-style="oblique" font-size="10.00" fill="#000000">INT</text>
</g>
<!-- guestadvisor -->
<g id="node3" class="node">
<title>guestadvisor</title>
<polygon fill="#dddddd" stroke="transparent" points="778,-430 778,-452 891,-452 891,-430 778,-430"/>
<polygon fill="none" stroke="#000000" points="778,-430 778,-452 891,-452 891,-430 778,-430"/>
<text text-anchor="start" x="799.1199" y="-436.4" font-family="Times,serif" font-size="14.00" fill="#000000">guestadvisor</text>
<polygon fill="none" stroke="#000000" points="778,-408 778,-430 891,-430 891,-408 778,-408"/>
<text text-anchor="start" x="782.1225" y="-415.4" font-family="Times,serif" font-size="14.00" fill="#000000">idGuestadvisor:</text>
<text text-anchor="start" x="870.7705" y="-415.4" font-family="Helvetica,sans-Serif" font-style="oblique" font-size="10.00" fill="#000000">INT</text>
<polygon fill="none" stroke="#000000" points="778,-386 778,-408 891,-408 891,-386 778,-386"/>
<text text-anchor="start" x="792.5627" y="-393.4" font-family="Times,serif" font-size="14.00" fill="#000000">email:</text>
<text text-anchor="start" x="827.5543" y="-393.4" font-family="Helvetica,sans-Serif" font-style="oblique" font-size="10.00" fill="#000000">VARCHAR</text>
<polygon fill="none" stroke="#000000" points="778,-364 778,-386 891,-386 891,-364 778,-364"/>
<text text-anchor="start" x="783.2324" y="-371.4" font-family="Times,serif" font-size="14.00" fill="#000000">fullname:</text>
<text text-anchor="start" x="836.8846" y="-371.4" font-family="Helvetica,sans-Serif" font-style="oblique" font-size="10.00" fill="#000000">VARCHAR</text>
<polygon fill="none" stroke="#000000" points="778,-342 778,-364 891,-364 891,-342 778,-342"/>
<text text-anchor="start" x="780.5115" y="-349.4" font-family="Times,serif" font-size="14.00" fill="#000000">affiliation:</text>
<text text-anchor="start" x="839.6055" y="-349.4" font-family="Helvetica,sans-Serif" font-style="oblique" font-size="10.00" fill="#000000">VARCHAR</text>
<polygon fill="none" stroke="#000000" points="778,-320 778,-342 891,-342 891,-320 778,-320"/>
<text text-anchor="start" x="781.6777" y="-327.4" font-family="Times,serif" font-size="14.00" fill="#000000">password:</text>
<text text-anchor="start" x="838.4393" y="-327.4" font-family="Helvetica,sans-Serif" font-style="oblique" font-size="10.00" fill="#000000">VARCHAR</text>
</g>
<!-- advisor&#45;&gt;guestadvisor -->
<g id="edge2" class="edge">
<title>advisor:idGuestadvisor-&gt;guestadvisor:idguestadvisor</title>
<path fill="none" stroke="#444444" stroke-dasharray="5,2" d="M541,-419C642.8359,-419 670.8309,-419 767.7633,-419"/>
<polygon fill="#444444" stroke="#444444" points="778,-422.5 768,-419.0001 778,-415.5 778,-422.5"/>
</g>
<!-- quota -->
<g id="node8" class="node">
<title>quota</title>
<polygon fill="#dddddd" stroke="transparent" points="774,-588 774,-610 894,-610 894,-588 774,-588"/>
<polygon fill="none" stroke="#000000" points="774,-588 774,-610 894,-610 894,-588 774,-588"/>
<text text-anchor="start" x="818.4474" y="-594.4" font-family="Times,serif" font-size="14.00" fill="#000000">quota</text>
<polygon fill="none" stroke="#000000" points="774,-566 774,-588 894,-588 894,-566 774,-566"/>
<text text-anchor="start" x="801.45" y="-573.4" font-family="Times,serif" font-size="14.00" fill="#000000">idQuota:</text>
<text text-anchor="start" x="850.443" y="-573.4" font-family="Helvetica,sans-Serif" font-style="oblique" font-size="10.00" fill="#000000">INT</text>
<polygon fill="none" stroke="#000000" points="774,-544 774,-566 894,-566 894,-544 774,-544"/>
<text text-anchor="start" x="792.4533" y="-551.4" font-family="Times,serif" font-size="14.00" fill="#000000">name:</text>
<text text-anchor="start" x="826.6637" y="-551.4" font-family="Helvetica,sans-Serif" font-style="oblique" font-size="10.00" fill="#000000">VARCHAR</text>
<polygon fill="none" stroke="#000000" points="774,-522 774,-544 894,-544 894,-522 774,-522"/>
<text text-anchor="start" x="776.5101" y="-529.4" font-family="Times,serif" font-size="14.00" fill="#000000">description:</text>
<text text-anchor="start" x="842.6069" y="-529.4" font-family="Helvetica,sans-Serif" font-style="oblique" font-size="10.00" fill="#000000">VARCHAR</text>
<polygon fill="none" stroke="#000000" points="774,-500 774,-522 894,-522 894,-500 774,-500"/>
<text text-anchor="start" x="806.1106" y="-507.4" font-family="Times,serif" font-size="14.00" fill="#000000">n_kltn:</text>
<text text-anchor="start" x="845.7824" y="-507.4" font-family="Helvetica,sans-Serif" font-style="oblique" font-size="10.00" fill="#000000">INT</text>
<polygon fill="none" stroke="#000000" points="774,-478 774,-500 894,-500 894,-478 774,-478"/>
<text text-anchor="start" x="803.3939" y="-485.4" font-family="Times,serif" font-size="14.00" fill="#000000">n_dakh:</text>
<text text-anchor="start" x="848.4991" y="-485.4" font-family="Helvetica,sans-Serif" font-style="oblique" font-size="10.00" fill="#000000">INT</text>
</g>
<!-- advisor&#45;&gt;quota -->
<g id="edge1" class="edge">
<title>advisor:idQuota-&gt;quota:idquota</title>
<path fill="none" stroke="#444444" stroke-dasharray="5,2" d="M541,-441C657.3925,-441 654.385,-569.148 763.7814,-576.6567"/>
<polygon fill="#444444" stroke="#444444" points="773.8824,-580.498 764.0056,-576.6641 774.1176,-573.502 773.8824,-580.498"/>
</g>
<!-- attachment -->
<g id="node2" class="node">
<title>attachment</title>
<polygon fill="#dddddd" stroke="transparent" points="61,-224 61,-246 185,-246 185,-224 61,-224"/>
<polygon fill="none" stroke="#000000" points="61,-224 61,-246 185,-246 185,-224 61,-224"/>
<text text-anchor="start" x="92.2896" y="-230.4" font-family="Times,serif" font-size="14.00" fill="#000000">attachment</text>
<polygon fill="none" stroke="#000000" points="61,-202 61,-224 185,-224 185,-202 61,-202"/>
<text text-anchor="start" x="74.8995" y="-209.4" font-family="Times,serif" font-size="14.00" fill="#000000">idAttachment:</text>
<text text-anchor="start" x="154.9935" y="-209.4" font-family="Helvetica,sans-Serif" font-style="oblique" font-size="10.00" fill="#000000">INT</text>
<polygon fill="none" stroke="#000000" points="61,-180 61,-202 185,-202 185,-180 61,-180"/>
<text text-anchor="start" x="85.7247" y="-187.4" font-family="Times,serif" font-size="14.00" fill="#000000">title:</text>
<text text-anchor="start" x="111.3923" y="-187.4" font-family="Helvetica,sans-Serif" font-style="oblique" font-size="10.00" fill="#000000">VARCHAR</text>
<polygon fill="none" stroke="#000000" points="61,-158 61,-180 185,-180 185,-158 61,-158"/>
<text text-anchor="start" x="84.1679" y="-165.4" font-family="Times,serif" font-size="14.00" fill="#000000">uuid:</text>
<text text-anchor="start" x="112.9491" y="-165.4" font-family="Helvetica,sans-Serif" font-style="oblique" font-size="10.00" fill="#000000">VARCHAR</text>
<polygon fill="none" stroke="#000000" points="61,-136 61,-158 185,-158 185,-136 61,-136"/>
<text text-anchor="start" x="87.7291" y="-143.4" font-family="Times,serif" font-size="14.00" fill="#000000">idProject:</text>
<text text-anchor="start" x="142.1639" y="-143.4" font-family="Helvetica,sans-Serif" font-style="oblique" font-size="10.00" fill="#000000">INT</text>
<polygon fill="none" stroke="#000000" points="61,-114 61,-136 185,-136 185,-114 61,-114"/>
<text text-anchor="start" x="88.5117" y="-121.4" font-family="Times,serif" font-size="14.00" fill="#000000">idOwner:</text>
<text text-anchor="start" x="141.3813" y="-121.4" font-family="Helvetica,sans-Serif" font-style="oblique" font-size="10.00" fill="#000000">INT</text>
<polygon fill="none" stroke="#000000" points="61,-92 61,-114 185,-114 185,-92 61,-92"/>
<text text-anchor="start" x="63.5129" y="-99.4" font-family="Times,serif" font-size="14.00" fill="#000000">uploadDate:</text>
<text text-anchor="start" x="131.9351" y="-99.4" font-family="Helvetica,sans-Serif" font-style="oblique" font-size="10.00" fill="#000000">DATETIME</text>
</g>
<!-- project -->
<g id="node4" class="node">
<title>project</title>
<polygon fill="#dddddd" stroke="transparent" points="436,-316 436,-338 536,-338 536,-316 436,-316"/>
<polygon fill="none" stroke="#000000" points="436,-316 436,-338 536,-338 536,-316 436,-316"/>
<text text-anchor="start" x="466.5645" y="-322.4" font-family="Times,serif" font-size="14.00" fill="#000000">project</text>
<polygon fill="none" stroke="#000000" points="436,-294 436,-316 536,-316 536,-294 436,-294"/>
<text text-anchor="start" x="450.7291" y="-301.4" font-family="Times,serif" font-size="14.00" fill="#000000">idProject:</text>
<text text-anchor="start" x="505.1639" y="-301.4" font-family="Helvetica,sans-Serif" font-style="oblique" font-size="10.00" fill="#000000">INT</text>
<polygon fill="none" stroke="#000000" points="436,-272 436,-294 536,-294 536,-272 436,-272"/>
<text text-anchor="start" x="460.3882" y="-279.4" font-family="Times,serif" font-size="14.00" fill="#000000">title:</text>
<text text-anchor="start" x="486.0558" y="-279.4" font-family="Helvetica,sans-Serif" font-style="oblique" font-size="10.00" fill="#000000">TEXT</text>
<polygon fill="none" stroke="#000000" points="436,-250 436,-272 536,-272 536,-250 436,-250"/>
<text text-anchor="start" x="438.6765" y="-257.4" font-family="Times,serif" font-size="14.00" fill="#000000">idProjecttype:</text>
<text text-anchor="start" x="517.2165" y="-257.4" font-family="Helvetica,sans-Serif" font-style="oblique" font-size="10.00" fill="#000000">INT</text>
<polygon fill="none" stroke="#000000" points="436,-228 436,-250 536,-250 536,-228 436,-228"/>
<text text-anchor="start" x="444.8995" y="-235.4" font-family="Times,serif" font-size="14.00" fill="#000000">idSemester:</text>
<text text-anchor="start" x="510.9935" y="-235.4" font-family="Helvetica,sans-Serif" font-style="oblique" font-size="10.00" fill="#000000">INT</text>
<polygon fill="none" stroke="#000000" points="436,-206 436,-228 536,-228 536,-206 436,-206"/>
<text text-anchor="start" x="443.6707" y="-213.4" font-family="Times,serif" font-size="14.00" fill="#000000">status:</text>
<text text-anchor="start" x="479.4463" y="-213.4" font-family="Helvetica,sans-Serif" font-style="oblique" font-size="10.00" fill="#000000">VARCHAR</text>
<polygon fill="none" stroke="#000000" points="436,-184 436,-206 536,-206 536,-184 436,-184"/>
<text text-anchor="start" x="452.3973" y="-191.4" font-family="Times,serif" font-size="14.00" fill="#000000">grade:</text>
<text text-anchor="start" x="487.3777" y="-191.4" font-family="Helvetica,sans-Serif" font-style="oblique" font-size="10.00" fill="#000000">FLOAT</text>
</g>
<!-- attachment&#45;&gt;project -->
<g id="edge3" class="edge">
<title>attachment:idProject-&gt;project:idproject</title>
<path fill="none" stroke="#444444" stroke-dasharray="5,2" d="M185,-147C313.3417,-147 304.7485,-296.7778 425.869,-304.6763"/>
<polygon fill="#444444" stroke="#444444" points="435.8882,-308.4982 426.0051,-304.6805 436.1118,-301.5018 435.8882,-308.4982"/>
</g>
<!-- student -->
<g id="node11" class="node">
<title>student</title>
<polygon fill="#dddddd" stroke="transparent" points="430,-136 430,-158 542,-158 542,-136 430,-136"/>
<polygon fill="none" stroke="#000000" points="430,-136 430,-158 542,-158 542,-136 430,-136"/>
<text text-anchor="start" x="465.7798" y="-142.4" font-family="Times,serif" font-size="14.00" fill="#000000">student</text>
<polygon fill="none" stroke="#000000" points="430,-114 430,-136 542,-136 542,-114 430,-114"/>
<text text-anchor="start" x="449.1667" y="-121.4" font-family="Times,serif" font-size="14.00" fill="#000000">idStudent:</text>
<text text-anchor="start" x="506.7263" y="-121.4" font-family="Helvetica,sans-Serif" font-style="oblique" font-size="10.00" fill="#000000">INT</text>
<polygon fill="none" stroke="#000000" points="430,-92 430,-114 542,-114 542,-92 430,-92"/>
<text text-anchor="start" x="432.8448" y="-99.4" font-family="Times,serif" font-size="14.00" fill="#000000">studentNumber:</text>
<text text-anchor="start" x="523.0482" y="-99.4" font-family="Helvetica,sans-Serif" font-style="oblique" font-size="10.00" fill="#000000">INT</text>
<polygon fill="none" stroke="#000000" points="430,-70 430,-92 542,-92 542,-70 430,-70"/>
<text text-anchor="start" x="444.0627" y="-77.4" font-family="Times,serif" font-size="14.00" fill="#000000">email:</text>
<text text-anchor="start" x="479.0543" y="-77.4" font-family="Helvetica,sans-Serif" font-style="oblique" font-size="10.00" fill="#000000">VARCHAR</text>
<polygon fill="none" stroke="#000000" points="430,-48 430,-70 542,-70 542,-48 430,-48"/>
<text text-anchor="start" x="434.7324" y="-55.4" font-family="Times,serif" font-size="14.00" fill="#000000">fullname:</text>
<text text-anchor="start" x="488.3846" y="-55.4" font-family="Helvetica,sans-Serif" font-style="oblique" font-size="10.00" fill="#000000">VARCHAR</text>
<polygon fill="none" stroke="#000000" points="430,-26 430,-48 542,-48 542,-26 430,-26"/>
<text text-anchor="start" x="460.2217" y="-33.4" font-family="Times,serif" font-size="14.00" fill="#000000">dob:</text>
<text text-anchor="start" x="485.1123" y="-33.4" font-family="Helvetica,sans-Serif" font-style="oblique" font-size="10.00" fill="#000000">DATE</text>
<polygon fill="none" stroke="#000000" points="430,-4 430,-26 542,-26 542,-4 430,-4"/>
<text text-anchor="start" x="445.5683" y="-11.4" font-family="Times,serif" font-size="14.00" fill="#000000">gender:</text>
<text text-anchor="start" x="487.5487" y="-11.4" font-family="Helvetica,sans-Serif" font-style="oblique" font-size="10.00" fill="#000000">TINYINT</text>
</g>
<!-- attachment&#45;&gt;student -->
<g id="edge4" class="edge">
<title>attachment:idOwner-&gt;student:idstudent</title>
<path fill="none" stroke="#444444" stroke-dasharray="5,2" d="M185,-125C290.3798,-125 319.2717,-125 419.7216,-125"/>
<polygon fill="#444444" stroke="#444444" points="430,-128.5 420,-125.0001 430,-121.5 430,-128.5"/>
</g>
<!-- projecttype -->
<g id="node7" class="node">
<title>projecttype</title>
<polygon fill="#dddddd" stroke="transparent" points="774,-272 774,-294 894,-294 894,-272 774,-272"/>
<polygon fill="none" stroke="#000000" points="774,-272 774,-294 894,-294 894,-272 774,-272"/>
<text text-anchor="start" x="802.5119" y="-278.4" font-family="Times,serif" font-size="14.00" fill="#000000">projecttype</text>
<polygon fill="none" stroke="#000000" points="774,-250 774,-272 894,-272 894,-250 774,-250"/>
<text text-anchor="start" x="786.6765" y="-257.4" font-family="Times,serif" font-size="14.00" fill="#000000">idProjecttype:</text>
<text text-anchor="start" x="865.2165" y="-257.4" font-family="Helvetica,sans-Serif" font-style="oblique" font-size="10.00" fill="#000000">INT</text>
<polygon fill="none" stroke="#000000" points="774,-228 774,-250 894,-250 894,-228 774,-228"/>
<text text-anchor="start" x="792.4533" y="-235.4" font-family="Times,serif" font-size="14.00" fill="#000000">name:</text>
<text text-anchor="start" x="826.6637" y="-235.4" font-family="Helvetica,sans-Serif" font-style="oblique" font-size="10.00" fill="#000000">VARCHAR</text>
<polygon fill="none" stroke="#000000" points="774,-206 774,-228 894,-228 894,-206 774,-206"/>
<text text-anchor="start" x="776.5101" y="-213.4" font-family="Times,serif" font-size="14.00" fill="#000000">description:</text>
<text text-anchor="start" x="842.6069" y="-213.4" font-family="Helvetica,sans-Serif" font-style="oblique" font-size="10.00" fill="#000000">VARCHAR</text>
</g>
<!-- project&#45;&gt;projecttype -->
<g id="edge5" class="edge">
<title>project:idProjecttype-&gt;projecttype:idprojecttype</title>
<path fill="none" stroke="#444444" stroke-dasharray="5,2" d="M536,-261C638.2656,-261 666.3787,-261 763.7201,-261"/>
<polygon fill="#444444" stroke="#444444" points="774,-264.5 764,-261.0001 774,-257.5 774,-264.5"/>
</g>
<!-- semester -->
<g id="node9" class="node">
<title>semester</title>
<polygon fill="#dddddd" stroke="transparent" points="781,-158 781,-180 887,-180 887,-158 781,-158"/>
<polygon fill="none" stroke="#000000" points="781,-158 781,-180 887,-180 887,-158 781,-158"/>
<text text-anchor="start" x="809.5126" y="-164.4" font-family="Times,serif" font-size="14.00" fill="#000000">semester</text>
<polygon fill="none" stroke="#000000" points="781,-136 781,-158 887,-158 887,-136 781,-136"/>
<text text-anchor="start" x="792.8995" y="-143.4" font-family="Times,serif" font-size="14.00" fill="#000000">idSemester:</text>
<text text-anchor="start" x="858.9935" y="-143.4" font-family="Helvetica,sans-Serif" font-style="oblique" font-size="10.00" fill="#000000">INT</text>
<polygon fill="none" stroke="#000000" points="781,-114 781,-136 887,-136 887,-114 781,-114"/>
<text text-anchor="start" x="811.9563" y="-121.4" font-family="Times,serif" font-size="14.00" fill="#000000">year:</text>
<text text-anchor="start" x="839.9367" y="-121.4" font-family="Helvetica,sans-Serif" font-style="oblique" font-size="10.00" fill="#000000">INT</text>
<polygon fill="none" stroke="#000000" points="781,-92 781,-114 887,-114 887,-92 781,-92"/>
<text text-anchor="start" x="783.5762" y="-99.4" font-family="Times,serif" font-size="14.00" fill="#000000">semesterIndex:</text>
<text text-anchor="start" x="868.3168" y="-99.4" font-family="Helvetica,sans-Serif" font-style="oblique" font-size="10.00" fill="#000000">INT</text>
</g>
<!-- project&#45;&gt;semester -->
<g id="edge6" class="edge">
<title>project:idSemester-&gt;semester:idsemester</title>
<path fill="none" stroke="#444444" stroke-dasharray="5,2" d="M536,-239C648.7917,-239 663.8426,-152.486 770.7164,-147.2478"/>
<polygon fill="#444444" stroke="#444444" points="781.0844,-150.499 771.0029,-147.241 780.9156,-143.501 781.0844,-150.499"/>
</g>
<!-- projectAdvisorRel -->
<g id="node5" class="node">
<title>projectAdvisorRel</title>
<polygon fill="#dddddd" stroke="transparent" points="53,-518 53,-540 194,-540 194,-518 53,-518"/>
<polygon fill="none" stroke="#000000" points="53,-518 53,-540 194,-540 194,-518 53,-518"/>
<text text-anchor="start" x="71.7924" y="-524.4" font-family="Times,serif" font-size="14.00" fill="#000000">projectAdvisorRel</text>
<polygon fill="none" stroke="#000000" points="53,-496 53,-518 194,-518 194,-496 53,-496"/>
<text text-anchor="start" x="55.957" y="-503.4" font-family="Times,serif" font-size="14.00" fill="#000000">idProjectAdvisorRel:</text>
<text text-anchor="start" x="174.936" y="-503.4" font-family="Helvetica,sans-Serif" font-style="oblique" font-size="10.00" fill="#000000">INT</text>
<polygon fill="none" stroke="#000000" points="53,-474 53,-496 194,-496 194,-474 53,-474"/>
<text text-anchor="start" x="85.5047" y="-481.4" font-family="Times,serif" font-size="14.00" fill="#000000">idAdvisor:</text>
<text text-anchor="start" x="145.3883" y="-481.4" font-family="Helvetica,sans-Serif" font-style="oblique" font-size="10.00" fill="#000000">INT</text>
<polygon fill="none" stroke="#000000" points="53,-452 53,-474 194,-474 194,-452 53,-452"/>
<text text-anchor="start" x="88.2291" y="-459.4" font-family="Times,serif" font-size="14.00" fill="#000000">idProject:</text>
<text text-anchor="start" x="142.6639" y="-459.4" font-family="Helvetica,sans-Serif" font-style="oblique" font-size="10.00" fill="#000000">INT</text>
<polygon fill="none" stroke="#000000" points="53,-430 53,-452 194,-452 194,-430 53,-430"/>
<text text-anchor="start" x="97.5587" y="-437.4" font-family="Times,serif" font-size="14.00" fill="#000000">status:</text>
<text text-anchor="start" x="133.3343" y="-437.4" font-family="Helvetica,sans-Serif" font-style="oblique" font-size="10.00" fill="#000000">INT</text>
</g>
<!-- projectAdvisorRel&#45;&gt;advisor -->
<g id="edge7" class="edge">
<title>projectAdvisorRel:idAdvisor-&gt;advisor:idadvisor</title>
<path fill="none" stroke="#444444" stroke-dasharray="5,2" d="M194,-485C296.2737,-485 323.4367,-505.5633 420.7226,-506.9288"/>
<polygon fill="#444444" stroke="#444444" points="430.9757,-510.4999 421.0002,-506.9307 431.0243,-503.5001 430.9757,-510.4999"/>
</g>
<!-- projectAdvisorRel&#45;&gt;project -->
<g id="edge8" class="edge">
<title>projectAdvisorRel:idProject-&gt;project:idproject</title>
<path fill="none" stroke="#444444" stroke-dasharray="5,2" d="M194,-463C318.9375,-463 308.2578,-313.5225 425.7788,-305.3479"/>
<polygon fill="#444444" stroke="#444444" points="436.1191,-308.498 426.0058,-305.3403 435.8809,-301.502 436.1191,-308.498"/>
</g>
<!-- projectStudentRel -->
<g id="node6" class="node">
<title>projectStudentRel</title>
<polygon fill="#dddddd" stroke="transparent" points="54,-360 54,-382 192,-382 192,-360 54,-360"/>
<polygon fill="none" stroke="#000000" points="54,-360 54,-382 192,-382 192,-360 54,-360"/>
<text text-anchor="start" x="72.4544" y="-366.4" font-family="Times,serif" font-size="14.00" fill="#000000">projectStudentRel</text>
<polygon fill="none" stroke="#000000" points="54,-338 54,-360 192,-360 192,-338 54,-338"/>
<text text-anchor="start" x="56.619" y="-345.4" font-family="Times,serif" font-size="14.00" fill="#000000">idProjectStudentRel:</text>
<text text-anchor="start" x="173.274" y="-345.4" font-family="Helvetica,sans-Serif" font-style="oblique" font-size="10.00" fill="#000000">INT</text>
<polygon fill="none" stroke="#000000" points="54,-316 54,-338 192,-338 192,-316 54,-316"/>
<text text-anchor="start" x="86.1667" y="-323.4" font-family="Times,serif" font-size="14.00" fill="#000000">idStudent:</text>
<text text-anchor="start" x="143.7263" y="-323.4" font-family="Helvetica,sans-Serif" font-style="oblique" font-size="10.00" fill="#000000">INT</text>
<polygon fill="none" stroke="#000000" points="54,-294 54,-316 192,-316 192,-294 54,-294"/>
<text text-anchor="start" x="87.7291" y="-301.4" font-family="Times,serif" font-size="14.00" fill="#000000">idProject:</text>
<text text-anchor="start" x="142.1639" y="-301.4" font-family="Helvetica,sans-Serif" font-style="oblique" font-size="10.00" fill="#000000">INT</text>
<polygon fill="none" stroke="#000000" points="54,-272 54,-294 192,-294 192,-272 54,-272"/>
<text text-anchor="start" x="97.0587" y="-279.4" font-family="Times,serif" font-size="14.00" fill="#000000">status:</text>
<text text-anchor="start" x="132.8343" y="-279.4" font-family="Helvetica,sans-Serif" font-style="oblique" font-size="10.00" fill="#000000">INT</text>
</g>
<!-- projectStudentRel&#45;&gt;project -->
<g id="edge10" class="edge">
<title>projectStudentRel:idProject-&gt;project:idproject</title>
<path fill="none" stroke="#444444" stroke-dasharray="5,2" d="M192,-305C296.9497,-305 325.7237,-305 425.7636,-305"/>
<polygon fill="#444444" stroke="#444444" points="436,-308.5 426,-305.0001 436,-301.5 436,-308.5"/>
</g>
<!-- projectStudentRel&#45;&gt;student -->
<g id="edge9" class="edge">
<title>projectStudentRel:idStudent-&gt;student:idstudent</title>
<path fill="none" stroke="#444444" stroke-dasharray="5,2" d="M192,-327C327.218,-327 293.1493,-135.1276 419.7707,-125.3841"/>
<polygon fill="#444444" stroke="#444444" points="430.1314,-128.4975 420.007,-125.3753 429.8686,-121.5025 430.1314,-128.4975"/>
</g>
<!-- staff -->
<g id="node10" class="node">
<title>staff</title>
<polygon fill="#dddddd" stroke="transparent" points="69,-632 69,-654 177,-654 177,-632 69,-632"/>
<polygon fill="none" stroke="#000000" points="69,-632 69,-654 177,-654 177,-632 69,-632"/>
<text text-anchor="start" x="110.5645" y="-638.4" font-family="Times,serif" font-size="14.00" fill="#000000">staff</text>
<polygon fill="none" stroke="#000000" points="69,-610 69,-632 177,-632 177,-610 69,-610"/>
<text text-anchor="start" x="93.9514" y="-617.4" font-family="Times,serif" font-size="14.00" fill="#000000">idStaff:</text>
<text text-anchor="start" x="135.9416" y="-617.4" font-family="Helvetica,sans-Serif" font-style="oblique" font-size="10.00" fill="#000000">INT</text>
<polygon fill="none" stroke="#000000" points="69,-588 69,-610 177,-610 177,-588 69,-588"/>
<text text-anchor="start" x="81.0627" y="-595.4" font-family="Times,serif" font-size="14.00" fill="#000000">email:</text>
<text text-anchor="start" x="116.0543" y="-595.4" font-family="Helvetica,sans-Serif" font-style="oblique" font-size="10.00" fill="#000000">VARCHAR</text>
<polygon fill="none" stroke="#000000" points="69,-566 69,-588 177,-588 177,-566 69,-566"/>
<text text-anchor="start" x="71.7324" y="-573.4" font-family="Times,serif" font-size="14.00" fill="#000000">fullname:</text>
<text text-anchor="start" x="125.3846" y="-573.4" font-family="Helvetica,sans-Serif" font-style="oblique" font-size="10.00" fill="#000000">VARCHAR</text>
</g>
</g>
</svg>